<?xml version="1.0" encoding="UTF-8" standalone="no"?>
<!DOCTYPE svg PUBLIC "-//W3C//DTD SVG 1.1//EN" "http://www.w3.org/Graphics/SVG/1.1/DTD/svg11.dtd">
<svg version="1.1" xmlns="http://www.w3.org/2000/svg" xmlns:xlink="http://www.w3.org/1999/xlink" preserveAspectRatio="xMidYMid meet" viewBox="0 0 640 640" width="200" height="200"><defs><path d="M195.61 9.63C199.52 11.86 187.24 14.09 168.27 14.65C133.67 15.21 126.97 17.44 87.91 42.55C63.36 57.62 22.62 132.39 18.71 168.66C9.79 251.25 10.34 275.25 21.5 309.84C33.78 345.56 40.48 356.16 57.22 362.86C65.59 365.65 65.59 364.53 56.1 347.23C49.96 336.07 47.73 326.59 50.52 324.91C58.89 319.89 57.22 310.96 47.73 310.96C42.71 310.96 39.36 315.98 38.8 323.24C38.8 334.96 38.25 335.51 34.34 324.91C31.55 318.77 33.22 308.73 37.13 300.36C41.04 293.1 42.71 284.18 41.04 280.83C38.8 278.04 35.46 280.27 33.22 286.41C29.32 295.89 28.76 295.89 28.76 286.97C28.2 281.39 32.11 275.81 36.57 274.13C47.73 269.67 47.17 260.74 36.57 260.74C29.32 260.74 29.32 259.62 34.9 252.93C39.92 247.35 43.27 246.79 46.06 251.81C48.85 255.72 50.52 254.6 50.52 249.02C50.52 240.65 61.68 239.53 157.11 240.65C262.01 241.21 263.69 241.21 274.29 254.6C282.1 263.53 288.8 266.88 298.84 265.2C306.1 263.53 313.35 264.64 313.91 267.43C315.03 270.22 330.65 264.64 348.51 255.16C380.87 237.86 380.87 237.86 400.96 247.35C412.12 252.37 424.96 260.74 429.98 265.2C441.7 277.48 441.14 339.42 428.31 379.04C417.15 413.08 419.38 425.36 436.12 420.89C442.26 419.22 446.72 420.33 446.72 423.12C446.72 425.91 441.14 428.15 434.45 428.7C427.19 428.7 424.4 430.38 427.75 431.49C433.89 433.73 433.89 464.42 428.31 525.8C427.75 531.94 421.05 555.38 413.24 578.26C403.75 607.27 395.94 620.67 387.01 625.13C346.84 642.99 429.42 645.78 482.99 627.92C513.13 618.43 524.29 611.18 544.38 588.3C557.77 572.68 567.81 557.61 565.58 555.38C563.91 552.59 567.81 544.77 573.39 538.08C587.9 521.9 613.01 475.58 622.5 447.68C630.87 424.24 628.08 389.08 618.6 382.95C615.25 380.71 614.13 375.13 615.8 370.67C617.48 366.21 616.92 360.63 614.69 357.84C611.9 355.05 606.88 341.09 602.97 326.03C597.95 307.05 592.93 299.8 585.67 299.8C580.09 299.8 571.16 292.55 566.14 283.62C560.56 274.13 554.42 267.99 551.63 269.67C549.4 271.34 547.17 269.11 547.17 264.64C547.17 260.18 539.91 253.48 530.43 250.14C521.5 247.35 513.69 241.77 513.69 238.42C513.69 235.07 511.45 233.95 508.11 235.63C505.32 237.3 502.53 235.63 502.53 231.16C502.53 226.7 499.18 221.68 495.83 220C491.92 218.33 484.11 209.4 477.97 199.36C467.93 182.06 467.93 181.5 477.97 184.85C484.11 186.52 492.48 185.4 496.94 182.06C503.08 177.59 501.97 177.03 491.92 179.82C481.32 183.17 479.09 182.06 481.88 175.36C483.55 170.9 481.88 164.2 478.53 160.85C474.07 156.39 474.07 154.71 479.09 154.71C482.99 154.71 485.78 156.94 485.78 159.74C485.78 162.53 490.81 165.87 496.94 167.55C511.45 171.45 510.9 165.32 495.27 153.6C440.58 110.07 414.36 92.77 395.94 87.19C384.22 83.29 373.62 76.59 372.5 71.57C370.27 64.31 369.71 64.31 369.16 72.12C368.6 84.96 347.39 85.52 342.37 73.24C340.7 68.22 342.37 62.08 346.84 59.85C350.74 57.06 352.42 53.15 350.18 50.92C348.51 48.69 342.93 50.36 338.46 53.71C326.75 63.75 292.71 52.04 281.55 34.74C276.52 27.48 265.36 19.67 256.43 18C247.51 15.76 241.37 12.42 243.04 9.63C248.06 1.81 220.72 -3.21 198.96 2.37C191.15 4.6 190.03 6.28 195.61 9.63ZM313.91 83.29C312.24 78.26 315.03 76.03 320.61 77.7C326.19 78.26 330.09 81.61 330.09 84.96C329.54 93.33 316.7 91.66 313.91 83.29ZM310.01 98.91C307.22 98.91 300.52 96.12 296.05 93.33C291.59 90.54 290.47 87.75 293.26 87.75C296.61 87.75 302.75 90.54 307.22 93.33C311.68 96.12 313.35 98.91 310.01 98.91ZM434.45 115.65C454.53 123.46 459 135.18 440.03 129.6C418.26 123.46 380.87 105.05 376.97 98.91C372.5 91.1 377.53 91.66 398.17 101.14C408.22 105.05 424.4 111.74 434.45 115.65ZM571.16 329.38C568.37 331.05 560.56 328.82 552.75 324.35C551.82 323.83 547.17 321.23 538.8 316.54C548.84 318.55 554.42 319.67 555.54 319.89C565.02 322.12 572.84 324.35 573.95 324.91C575.07 326.03 573.95 327.7 571.16 329.38ZM596.27 365.65C592.93 364.53 587.9 357.84 585.11 350.58C582.32 341.65 582.88 338.86 587.35 339.98C590.69 341.09 595.72 347.79 598.51 355.05C601.3 363.97 600.74 366.76 596.27 365.65ZM501.41 449.91C496.39 440.98 493.6 433.73 496.39 433.73C498.62 433.73 503.64 440.42 507.55 448.24C516.48 468.88 512.57 470 501.41 449.91ZM578.97 461.07C581.21 453.82 583.44 451.03 585.11 455.49C586.23 459.4 584.56 465.53 581.77 468.32C577.3 472.79 576.74 470.56 578.97 461.07ZM537.68 493.44C547.17 499.57 569.49 528.59 569.49 535.85C569.49 538.64 565.58 538.08 561.12 534.17C556.65 530.27 552.75 525.24 552.75 522.45C552.75 520.22 545.49 509.62 536.01 499.57C518.71 480.6 515.36 472.79 524.85 472.79C528.19 472.79 530.43 476.7 530.43 481.16C530.43 485.07 533.77 491.2 537.68 493.44ZM530.43 528.59C523.17 517.43 523.17 510.18 530.43 514.64C533.77 516.32 536.01 522.45 536.01 527.48C536.01 535.85 534.89 535.85 530.43 528.59Z" id="bsJOkvXoN"></path><path d="M357.44 324.35C357.44 326.59 364.13 334.96 371.95 342.77C385.34 356.16 386.46 356.72 383.11 345.56C380.87 338.86 381.43 333.28 384.22 333.28C387.01 333.28 389.8 327.14 389.8 319.33C389.8 311.52 393.71 301.47 399.29 297.57C406.54 292.55 407.66 289.2 403.2 286.41C399.29 284.18 388.13 290.87 376.97 301.47C366.37 312.08 357.44 322.12 357.44 324.35Z" id="bvwJtJJHZ"></path><path d="M56.1 383.5C59.45 383.5 61.68 386.85 61.68 390.76C61.68 394.67 70.61 412.52 82.33 430.38C83.67 432.54 90.37 443.33 102.42 462.74C108.45 455.04 111.79 450.77 112.46 449.91C118.04 442.66 122.51 433.73 122.51 430.94C122.51 427.59 120.83 428.7 119.16 432.05C115.25 443.21 96.28 440.42 89.58 428.15C86.24 422.01 85.12 414.2 86.79 411.41C88.47 408.06 85.68 405.83 80.1 405.83C71.73 405.83 71.17 404.71 78.42 400.25C85.68 395.22 85.68 394.67 78.42 394.67C73.4 394.67 65.59 387.97 60.57 379.04C53.31 367.88 50.52 366.76 50.52 373.46C50.52 379.04 53.31 383.5 56.1 383.5Z" id="c538nttSc5"></path><path d="M104.09 428.15C105.21 428.15 106.32 425.36 106.32 422.57C106.32 419.22 103.53 416.99 100.19 416.99C97.4 416.99 96.28 419.22 97.95 422.57C99.63 425.36 102.42 428.15 104.09 428.15Z" id="b1mGs94GtZ"></path><path d="M128.09 497.72C133.67 502.74 149.29 507.77 162.69 508.32C176.08 508.88 190.59 511.67 194.49 513.91C203.98 520.04 202.86 506.09 192.26 491.03C187.8 484.33 185.01 476.52 186.68 473.73C188.36 470.94 186.68 467.59 182.77 466.47C170.5 462.01 125.86 461.45 121.39 465.36C114.14 472.61 117.49 488.24 128.09 497.72Z" id="b7M5Fv4Yf1"></path><path d="M355.13 501.25C364.06 497.9 367.41 492.32 367.41 479.49C367.41 465.53 365.18 462.74 353.46 462.74C343.41 462.74 337.27 467.21 332.81 476.7C324.44 495.67 336.16 508.5 355.13 501.25Z" id="gRWCa4fc"></path><path d="M220.72 502.92C209.56 506.83 210.12 528.03 221.28 532.5C234.11 536.96 243.6 525.8 235.23 515.2C230.77 509.62 230.21 506.27 234.67 503.48C241.37 499.57 236.9 489.53 228.53 489.53C225.18 489.53 224.07 491.76 225.74 494.55C227.42 497.34 225.18 500.69 220.72 502.92Z" id="cAkn93fCZ"></path><path d="M231.88 556.49C230.21 553.15 224.07 550.91 219.05 550.91C210.68 550.91 210.68 552.03 217.93 556.49C229.09 563.75 236.35 563.75 231.88 556.49Z" id="i1tDUOhKS0"></path><path d="M302.19 577.14C307.22 582.16 306.66 584.39 302.19 584.39C293.82 584.39 294.38 602.81 302.75 611.18C312.24 620.67 327.3 620.11 319.49 610.62C316.14 606.72 311.68 595 310.01 584.39C306.1 562.63 304.98 560.4 299.96 565.98C297.73 567.65 298.84 572.68 302.19 577.14Z" id="co9lh8AWJ"></path></defs><g><g><g><use xlink:href="#bsJOkvXoN" opacity="1" fill="#ffa100" fill-opacity="1"></use><g><use xlink:href="#bsJOkvXoN" opacity="1" fill-opacity="0" stroke="#000000" stroke-width="1" stroke-opacity="0"></use></g></g><g><use xlink:href="#bvwJtJJHZ" opacity="1" fill="#ffa100" fill-opacity="1"></use></g><g><use xlink:href="#c538nttSc5" opacity="1" fill="#ffa100" fill-opacity="1"></use></g><g><use xlink:href="#b1mGs94GtZ" opacity="1" fill="#ffa100" fill-opacity="1"></use></g><g><use xlink:href="#b7M5Fv4Yf1" opacity="1" fill="#ffa100" fill-opacity="1"></use></g><g><use xlink:href="#gRWCa4fc" opacity="1" fill="#ffa100" fill-opacity="1"></use></g><g><use xlink:href="#cAkn93fCZ" opacity="1" fill="#ffa100" fill-opacity="1"></use></g><g><use xlink:href="#i1tDUOhKS0" opacity="1" fill="#ffa100" fill-opacity="1"></use></g><g><use xlink:href="#co9lh8AWJ" opacity="1" fill="#ffa100" fill-opacity="1"></use></g></g></g></svg>